PathFileType	4	(X/Y/Z)	C:\Users\israe\Desktop\Doctoral Research\Projects\PhaseIA\OPENSIM_october\ExperimentalData\subject1\100\P1S100W01.trc
DataRate	CameraRate	NumFrames	NumMarkers	Units	OrigDataRate	OrigDataStartFrame	OrigNumFrames
100.000000	100.000000	3	136	mm	100.000000	153	246
Frame#	Time	PELVIS_cgm24O			PELVIS_cgm24A			PELVIS_cgm24L			PELVIS_cgm24P			LFEMUR_cgm24O			LFEMUR_cgm24A			LFEMUR_cgm24L			LFEMUR_cgm24P			LTIBIA_cgm24O			LTIBIA_cgm24A			LTIBIA_cgm24L			LTIBIA_cgm24P			LFOOT_cgm24O			LFOOT_cgm24A			LFOOT_cgm24L			LFOOT_cgm24P			LTOES_cgm24O			LTOES_cgm24A			LTOES_cgm24L			LTOES_cgm24P			RFEMUR_cgm24O			RFEMUR_cgm24A			RFEMUR_cgm24L			RFEMUR_cgm24P			RTIBIA_cgm24O			RTIBIA_cgm24A			RTIBIA_cgm24L			RTIBIA_cgm24P			RFOOT_cgm24O			RFOOT_cgm24A			RFOOT_cgm24L			RFOOT_cgm24P			RTOES_cgm24O			RTOES_cgm24A			RTOES_cgm24L			RTOES_cgm24P			THORAX_cgm24O			THORAX_cgm24A			THORAX_cgm24L			THORAX_cgm24P			LUPPERARM_cgm24O			LUPPERARM_cgm24A			LUPPERARM_cgm24L			LUPPERARM_cgm24P			LFOREARM_cgm24O			LFOREARM_cgm24A			LFOREARM_cgm24L			LFOREARM_cgm24P			LHAND_cgm24O			LHAND_cgm24A			LHAND_cgm24L			LHAND_cgm24P			RUPPERARM_cgm24O			RUPPERARM_cgm24A			RUPPERARM_cgm24L			RUPPERARM_cgm24P			RFOREARM_cgm24O			RFOREARM_cgm24A			RFOREARM_cgm24L			RFOREARM_cgm24P			RHAND_cgm24O			RHAND_cgm24A			RHAND_cgm24L			RHAND_cgm24P			HEAD_cgm24O			HEAD_cgm24A			HEAD_cgm24L			HEAD_cgm24P			LFHD			RFHD			LBHD			RBHD			C7			T10			CLAV			STRN			RBAK			LSHO			LELB			LFRM			LWRA			LWRB			LFIN			RSHO			RELB			RFRM			RWRA			RWRB			RFIN			LASI			RASI			LPSI			RPSI			LTHI			LTHAP			LTHAD			LKNE			LTIB			LTIAP			LTIAD			LANK			LHEE			LTOE			LFMH			LVMH			RTHI			RTHAP			RTHAD			RKNE			RTIB			RTIAP			RTIAD			RANK			RHEE			RTOE			RFMH			RVMH			RPel			LPel			LMEL			RMEL			LHJC_cgm24			RHJC_cgm24			LKJC_cgm24			RKJC_cgm24			LAJC_cgm24			RAJC_cgm24			LFJC_cgm24			RFJC_cgm24			LSJC_cgm24			RSJC_cgm24			LEJC_cgm24			REJC_cgm24			LHO_cgm24			RHO_cgm24			CentreOfMass_cgm24			
		X1	Y1	Z1	X2	Y2	Z2	X3	Y3	Z3	X4	Y4	Z4	X5	Y5	Z5	X6	Y6	Z6	X7	Y7	Z7	X8	Y8	Z8	X9	Y9	Z9	X10	Y10	Z10	X11	Y11	Z11	X12	Y12	Z12	X13	Y13	Z13	X14	Y14	Z14	X15	Y15	Z15	X16	Y16	Z16	X17	Y17	Z17	X18	Y18	Z18	X19	Y19	Z19	X20	Y20	Z20	X21	Y21	Z21	X22	Y22	Z22	X23	Y23	Z23	X24	Y24	Z24	X25	Y25	Z25	X26	Y26	Z26	X27	Y27	Z27	X28	Y28	Z28	X29	Y29	Z29	X30	Y30	Z30	X31	Y31	Z31	X32	Y32	Z32	X33	Y33	Z33	X34	Y34	Z34	X35	Y35	Z35	X36	Y36	Z36	X37	Y37	Z37	X38	Y38	Z38	X39	Y39	Z39	X40	Y40	Z40	X41	Y41	Z41	X42	Y42	Z42	X43	Y43	Z43	X44	Y44	Z44	X45	Y45	Z45	X46	Y46	Z46	X47	Y47	Z47	X48	Y48	Z48	X49	Y49	Z49	X50	Y50	Z50	X51	Y51	Z51	X52	Y52	Z52	X53	Y53	Z53	X54	Y54	Z54	X55	Y55	Z55	X56	Y56	Z56	X57	Y57	Z57	X58	Y58	Z58	X59	Y59	Z59	X60	Y60	Z60	X61	Y61	Z61	X62	Y62	Z62	X63	Y63	Z63	X64	Y64	Z64	X65	Y65	Z65	X66	Y66	Z66	X67	Y67	Z67	X68	Y68	Z68	X69	Y69	Z69	X70	Y70	Z70	X71	Y71	Z71	X72	Y72	Z72	X73	Y73	Z73	X74	Y74	Z74	X75	Y75	Z75	X76	Y76	Z76	X77	Y77	Z77	X78	Y78	Z78	X79	Y79	Z79	X80	Y80	Z80	X81	Y81	Z81	X82	Y82	Z82	X83	Y83	Z83	X84	Y84	Z84	X85	Y85	Z85	X86	Y86	Z86	X87	Y87	Z87	X88	Y88	Z88	X89	Y89	Z89	X90	Y90	Z90	X91	Y91	Z91	X92	Y92	Z92	X93	Y93	Z93	X94	Y94	Z94	X95	Y95	Z95	X96	Y96	Z96	X97	Y97	Z97	X98	Y98	Z98	X99	Y99	Z99	X100	Y100	Z100	X101	Y101	Z101	X102	Y102	Z102	X103	Y103	Z103	X104	Y104	Z104	X105	Y105	Z105	X106	Y106	Z106	X107	Y107	Z107	X108	Y108	Z108	X109	Y109	Z109	X110	Y110	Z110	X111	Y111	Z111	X112	Y112	Z112	X113	Y113	Z113	X114	Y114	Z114	X115	Y115	Z115	X116	Y116	Z116	X117	Y117	Z117	X118	Y118	Z118	X119	Y119	Z119	X120	Y120	Z120	X121	Y121	Z121	X122	Y122	Z122	X123	Y123	Z123	X124	Y124	Z124	X125	Y125	Z125	X126	Y126	Z126	X127	Y127	Z127	X128	Y128	Z128	X129	Y129	Z129	X130	Y130	Z130	X131	Y131	Z131	X132	Y132	Z132	X133	Y133	Z133	X134	Y134	Z134	X135	Y135	Z135	X136	Y136	Z136	

154	1.53	266.1499938964844	907.4569702148438	577.7880249023438	267.1669006347656	892.824951171875	748.8232421875	437.7803344726563	904.364013671875	576.5029907226563	269.3411865234375	1078.46728515625	592.3989257812501	330.6380004882813	490.2999877929687	526.051025390625	327.788818359375	438.9366455078124	942.5703125	749.7696533203125	468.7768554687499	526.2639770507813	351.9727783203125	906.2725830078125	577.492919921875	294.9209899902344	100.1299972534179	483.43798828125	388.0273132324219	50.13971710205073	863.1163330078125	676.2069091796875	75.78781127929685	386.7324523925781	330.63818359375	490.2990417480468	526.05078125	287.3479919433594	81.21559906005857	404.4030151367188	310.0164489746094	304.6855163574219	409.6083374023438	510.7338256835938	58.75616455078123	395.7948913574219	279.3064575195313	87.25950622558592	179.9513092041016	296.3529968261719	77.85160064697263	546.2000122070313	296.3529968261719	77.85160064697263	546.2000122070313	296.3529968261719	77.85160064697263	546.2000122070313	296.3529968261719	77.85160064697263	546.2000122070313	176.8390045166016	523.7529907226563	740.7069702148438	260.2673034667969	682.4653320312499	1118.130737304688	586.2607421875	488.1325683593749	665.1845703125	180.3274536132813	908.642822265625	578.0839233398438	193.3379974365234	126.8000030517578	691.4099731445313	121.6159286499023	75.32525634765618	1081.89794921875	586.8582763671875	134.0617370605468	764.646240234375	176.8385620117188	523.7536010742188	740.70654296875	203.4279937744141	98.25800323486324	616.4879760742188	199.2857208251953	323.8896179199218	616.0999755859375	426.5559387207031	102.4119491577148	650.0079956054688	236.949462890625	98.489631652832	393.3217163085938	182.4510040283203	103.2289962768554	757.6890258789063	182.4510040283203	103.2289962768554	757.6890258789063	182.4510040283203	103.2289962768554	757.6890258789063	182.4510040283203	103.2289962768554	757.6890258789063	271.8680114746094	1432.849975585938	631.6320190429689	230.8386688232422	1469.818969726563	1100.36767578125	-198.3221130371094	1428.588500976563	590.8115234375001	272.90283203125	962.3413696289063	668.8314208984376	518.6110229492188	1132.68994140625	600.6729736328126	563.1006469726563	1128.611938476563	331.8703918457032	253.34375	1087.792358398438	557.4496459960939	474.9678344726563	1401.424682617188	589.3726196289064	523.1890258789063	935.2119750976563	777.7009887695314	584.1358032226563	762.3151245117188	583.2573852539063	263.0345153808594	891.1798706054688	735.3104248046875	518.5767822265625	1134.169311523438	599.3449707031251	510.3210144042969	881.10400390625	820.0419921875	590.6441040039063	945.0669555664063	926.1918334960939	631.2335815429688	812.9072265625	769.6415405273438	537.5093994140625	995.4227905273438	730.5833129882814	38.93889999389648	1137.800048828125	482.4140014648438	64.51255798339844	1195.746215820313	222.623748779297	-224.3313903808594	1181.753173828125	466.3015136718751	78.14959716796875	1395.119140625	543.6688842773439	-8.541210174560547	895.5689697265625	597.4400024414063	-12.85469245910645	779.4013061523438	351.0249328613282	-276.7923889160156	940.3538208007813	581.0227661132814	38.9625358581543	1137.91845703125	482.3574218750001	-21.03319931030273	823.6309814453125	626.43798828125	-137.9910583496094	883.443603515625	724.435791015625	90.77903747558594	851.2183227539063	743.045166015625	5.027313232421875	973.7031860351563	565.9445190429689	259.9320068359375	1688.369995117188	565.9329833984376	256.3699340820313	1702.238525390625	617.5067749023439	313.1190185546875	1693.966552734375	568.1015625000001	255.1013336181641	1739.762817382813	551.7794799804689	327.360107421875	1710.15234375	615.4711303710939	185.4847564697266	1697.072265625	609.8738403320314	353.9914855957031	1683.350463867188	522.2816772460939	172.8914947509766	1662.914184570313	516.1060180664064	278.4099731445313	1518.745361328125	509.5933837890626	288.5415649414063	1163.219482421875	467.7104187011719	271.4770202636719	1433.200439453125	636.1013793945314	262.4834594726563	1269.982788085938	718.9998779296876	167.8613891601563	1367.954956054688	441.1513366699219	475.0456848144531	1455.4638671875	583.4427490234376	550.3298950195313	1138.602783203125	618.7817993164064	532.780517578125	1043.23486328125	732.2324218750001	505.8283386230469	944.1348266601563	793.3400878906251	545.6669311523438	931.4070434570313	767.4114379882814	518.207275390625	887.3837890625	830.463623046875	76.38796234130859	1444.457641601563	539.8969116210939	3.716042995452881	1140.547973632813	493.4035339355469	-18.50778198242188	1013.533203125	568.0276489257814	8.701488494873047	902.3527221679688	621.408935546875	-32.09267044067383	892.6285400390625	578.6111450195313	-31.38081359863281	828.9230346679688	635.1077270507813	388.9687805175781	974.8801879882813	639.4531860351564	151.5785522460938	986.5360107421875	636.0471191406251	309.0867919921875	997.8938598632813	460.9235229492188	229.7680358886719	997.4926147460938	460.7283935546876	417.6633605957031	668.149169921875	545.8781127929688	372.5913391113281	748.9475708007813	657.48681640625	356.8904724121094	645.2660522460938	636.287109375	381.2103271484375	488.1117858886718	524.294677734375	373.5578918457031	305.5747680664062	501.0592651367188	328.5215148925781	355.0519104003906	564.672607421875	322.0501098632813	252.9393615722656	547.7479858398438	331.9485778808594	92.55558013916013	474.0660705566406	286.9333190917969	80.34896087646482	400.0173950195313	301.1134033203125	80.38677215576169	573.5517578125	276.7707824707031	57.27954101562496	623.95703125	364.7146911621094	43.38122940063473	586.5706787109375	84.43617248535156	744.7731323242188	666.2962036132813	159.78466796875	829.0994262695313	715.587158203125	164.5431823730469	742.9464721679688	752.7464599609375	127.6072463989258	535.1433715820313	741.9822387695313	127.9841537475586	317.5061950683593	724.4215087890625	168.7171020507813	394.0335998535156	779.951171875	176.2797088623047	259.1507568359374	755.6163940429688	154.0262756347656	127.3881225585937	685.4733276367188	204.2393798828125	97.9086532592773	615.5184326171875	180.0103912353516	102.8899612426757	791.2755126953125	211.7260894775391	76.40996551513666	832.6070556640625	124.5379180908203	61.822826385498	792.9319458007813	99.11839294433594	1013.38525390625	535.8035888671876	441.1963195800781	1000.522888183594	552.3403320312501	486.7348327636719	1122.359130859375	601.9332885742189	67.26990509033203	1121.532470703125	483.6288146972657	351.9729919433594	906.2730102539063	577.4929809570313	180.3269958496094	908.6420288085938	578.083984375	330.6380004882813	490.2999877929687	526.051025390625	176.8390045166016	523.7529907226563	740.7069702148438	294.9209899902344	100.1299972534179	483.43798828125	193.3379974365234	126.8000030517578	691.4099731445313	296.3529968261719	77.85160064697263	546.2000122070313	182.4510040283203	103.2289962768554	757.6890258789063	472.7009887695313	1415.380004882813	588.7849731445314	79.58489990234375	1404.5400390625	545.9110107421876	518.6110229492188	1132.68994140625	600.6729736328126	38.93889999389648	1137.800048828125	482.4140014648438	510.3210144042969	881.10400390625	820.0419921875	-21.03319931030273	823.6309814453125	626.43798828125	269.3150024414063	1013.919921875	583.2239990234376	
155	1.54	266.2219848632813	906.2579956054688	589.5029907226563	267.5459289550781	891.2071533203125	760.4998168945313	437.8473205566406	903.0427856445313	587.8911743164063	269.5660400390625	1077.229736328125	604.5256958007814	330.5799865722656	490.1080017089843	529.6380004882813	327.6466064453125	430.7727966308593	945.0960083007813	749.7044677734375	468.4451599121093	529.50341796875	352.0437316894531	905.01123046875	589.0455322265625	294.656005859375	100.333999633789	483.7049865722656	388.3385620117188	47.02665710449214	862.7899169921875	675.7814331054688	76.69856262207028	386.1945190429688	330.5795593261719	490.1072387695312	529.6376342773438	287.0920104980469	81.64540100097653	404.6159973144531	309.5548095703125	305.1200866699219	410.4670715332031	510.48681640625	59.42597961425779	395.6264343261719	278.7291870117188	88.36185455322264	180.1951751708984	296.1969909667969	77.86640167236325	546.39697265625	296.1969909667969	77.86640167236325	546.39697265625	296.1969909667969	77.86640167236325	546.39697265625	296.1969909667969	77.86640167236325	546.39697265625	178.7729949951172	522.39501953125	752.0910034179688	265.198486328125	680.7101440429686	1129.0068359375	587.5841674804688	487.3920593261718	673.0542602539063	180.4014739990234	907.5050659179688	589.960693359375	195.2440032958984	122.9670028686523	730.6400146484375	122.3047714233398	98.85820770263665	1123.54345703125	588.5416870117188	135.2244110107421	804.404541015625	178.7722473144531	522.3953857421875	752.0913696289063	205.6289978027344	89.06649780273433	658.0280151367188	201.7903594970703	314.0818481445312	641.2854614257813	428.6015930175781	95.41528320312496	692.2313232421875	240.2041931152344	73.10590362548825	435.5942687988281	184.0119934082031	104.2679977416992	798.3989868164063	184.0119934082031	104.2679977416992	798.3989868164063	184.0119934082031	104.2679977416992	798.3989868164063	184.0119934082031	104.2679977416992	798.3989868164063	271.7909851074219	1431.2900390625	644.5150146484376	230.0006103515625	1466.932006835938	1113.2861328125	-198.3309020996094	1426.651000976563	602.9570922851564	273.2601623535156	960.6826171875	680.4276123046876	519.426025390625	1131.650024414063	616.1959838867189	565.8079223632813	1125.919677734375	347.7436218261719	254.599365234375	1085.683959960938	571.4217529296876	475.0826110839844	1400.173828125	602.8026733398439	522.7269897460938	937.030029296875	796.4639892578126	585.571044921875	761.096923828125	605.3768310546875	263.0046081542969	891.94970703125	752.552734375	519.4010009765625	1133.069458007813	614.8775634765626	509.6520080566406	883.8270263671875	839.7960205078125	589.43994140625	949.9307250976561	945.0341186523439	630.8153076171875	814.6322631835938	791.3977661132813	537.296142578125	996.3136596679688	748.1804199218751	39.7494010925293	1136.47998046875	492.7909851074219	66.90764617919922	1195.97607421875	233.5123291015626	-223.4535980224609	1180.300170898438	475.2770080566407	78.34190368652344	1393.467895507813	555.8037719726564	-8.221639633178711	893.6510009765625	606.14501953125	-10.89498329162598	778.8430786132813	359.0703125000001	-276.4043273925781	938.300048828125	588.2997436523439	39.78713989257813	1136.672607421875	492.7009887695313	-21.01160049438477	821.6209716796875	634.7579956054688	-138.8699035644531	881.1206665039063	731.8634033203125	89.70256042480469	848.7391357421875	752.5172119140625	5.672725677490234	971.90283203125	575.0625000000001	259.7210083007813	1687.030029296875	579.2470092773439	256.0429077148438	1700.81494140625	630.8350830078126	312.897705078125	1692.679321289063	581.5288085937501	254.8638000488281	1738.439575195313	565.1634521484376	327.03125	1708.805908203125	628.9505004882814	185.1771087646484	1695.580200195313	623.0620727539064	353.87109375	1682.172119140625	535.7700805664064	172.8072204589844	1661.563720703125	529.2072143554689	278.56298828125	1517.542236328125	522.6877441406251	288.9898986816406	1162.119506835938	479.9972229003907	271.3926696777344	1431.629760742188	648.9843139648439	262.5837707519531	1268.033813476563	731.2836914062501	168.4981536865234	1366.633178710938	453.6090698242188	475.0707702636719	1454.3037109375	596.8799438476564	551.102294921875	1137.775390625	634.3057250976564	532.608154296875	1044.224609375	749.2288208007814	505.2566833496094	946.2532958984375	811.8268432617189	545.2842407226563	933.0079345703125	786.3993530273439	517.4855346679688	890.3172607421875	850.1275634765625	76.53666687011719	1442.886840820313	552.2095947265626	4.453070163726807	1139.143432617188	503.5664367675782	-18.13969802856445	1011.743103027344	577.3044433593751	8.780245780944824	900.3316650390625	630.28759765625	-31.58455276489258	890.776611328125	587.107177734375	-31.43888473510742	826.88525390625	643.3486938476563	389.5072326660156	973.1923217773438	651.1912841796876	151.9650573730469	985.06591796875	648.3591308593751	308.9000854492188	996.7756958007813	472.8125915527344	229.6461334228516	996.2500610351563	472.8414001464844	417.6605529785156	667.6369018554688	552.8784790039063	372.7431640625	746.7312622070313	666.2278442382813	356.7934875488281	643.31494140625	643.1124877929688	381.1427307128906	487.9411926269531	527.779541015625	373.4688110351563	305.6063537597656	502.8446350097656	328.3658142089844	354.5891113281249	566.6721801757813	321.9205322265625	252.5806121826172	549.1315307617188	331.6619873046875	92.72665405273435	474.3719177246094	286.6639709472656	80.54614257812497	400.3108825683594	300.9536743164063	80.12377929687497	573.680908203125	276.7303771972656	56.92867660522457	624.1080932617188	364.6846923828125	43.30767059326168	586.5805053710938	85.02528381347656	743.1863403320313	678.4868774414063	160.9877777099609	827.307373046875	727.5380249023438	166.4455871582031	741.2625732421875	764.1362915039063	129.6558074951172	533.9945678710938	754.7164916992188	129.8736877441406	315.6079711914062	750.0480346679688	170.4927520751953	395.6984252929687	800.4820556640625	177.9872589111328	259.5375671386718	785.3865966796875	155.9502410888672	123.352424621582	724.6023559570313	206.4009857177734	89.03727722167964	657.4346923828125	181.4385833740234	106.3915252685546	831.8385009765625	212.9358825683594	82.99612426757807	874.9794921875	125.9007186889648	65.71578979492182	836.1632080078125	99.28010559082031	1011.898803710938	548.1187744140626	441.3897094726563	998.97216796875	563.8756713867189	487.7040100097656	1121.161376953125	617.2434692382814	68.09770965576172	1120.22216796875	494.1128540039063	352.0429992675781	905.010986328125	589.0449829101563	180.4010009765625	907.5050048828125	589.9609985351563	330.5799865722656	490.1080017089843	529.6380004882813	178.7729949951172	522.39501953125	752.0910034179688	294.656005859375	100.333999633789	483.7049865722656	195.2440032958984	122.9670028686523	730.6400146484375	296.1969909667969	77.86640167236325	546.39697265625	184.0119934082031	104.2679977416992	798.3989868164063	472.7640075683594	1414.199951171875	602.1030273437501	79.76629638671875	1402.9599609375	558.1300048828126	519.426025390625	1131.650024414063	616.1959838867189	39.7494010925293	1136.47998046875	492.7909851074219	509.6520080566406	883.8270263671875	839.7960205078125	-21.01160049438477	821.6209716796875	634.7579956054688	269.6430053710938	1012.760070800781	595.5339965820314	
156	1.55	266.3389892578125	904.7550048828125	601.3720092773438	267.9682006835938	889.284423828125	772.3286743164063	437.9632568359375	901.6531372070313	599.4557495117188	269.6007995605469	1075.691284179688	616.8096923828126	330.4859924316406	489.8720092773437	533.5020141601563	327.1744995117188	422.6918945312499	947.760986328125	749.596923828125	467.9474792480468	533.2968139648438	352.1599731445313	903.563720703125	600.7633666992188	294.3739929199219	100.552001953125	484.0060119628906	388.4379577636719	43.70958328247065	862.482421875	675.3875732421875	77.68601226806638	385.8772583007813	330.4859313964844	489.8713378906249	533.5018920898438	286.8330078125	82.10279846191403	404.8580017089844	309.0419921875	305.5838012695313	411.39697265625	510.2414245605469	60.17492294311521	395.4978637695313	278.160888671875	89.5300827026367	180.4713134765625	296.0260009765625	77.88510131835935	546.6229858398438	296.0260009765625	77.88510131835935	546.6229858398438	296.0260009765625	77.88510131835935	546.6229858398438	296.0260009765625	77.88510131835935	546.6229858398438	180.6230010986328	520.35400390625	762.9710083007813	269.4188537597656	677.6867065429686	1139.747314453125	588.9291381835938	486.2372436523437	680.9907836914063	180.5182189941406	905.9459228515625	601.9818115234375	197.2299957275391	120.4089965820312	769.4810180664063	122.819938659668	123.7216491699218	1162.834228515625	590.246337890625	137.9365539550781	843.6797485351563	180.6224365234375	520.3543701171875	762.97119140625	207.97900390625	81.38809967041011	699.541015625	204.3808898925781	304.6229248046874	666.6747436523438	430.7390441894531	90.13848876953121	734.5885009765625	243.9226989746094	49.50439453124997	479.0451965332031	185.5670013427734	106.6220016479492	838.3350219726563	185.5670013427734	106.6220016479492	838.3350219726563	185.5670013427734	106.6220016479492	838.3350219726563	185.5670013427734	106.6220016479492	838.3350219726563	271.677001953125	1429.510009765625	657.4489746093751	229.2164611816406	1463.92578125	1126.25146484375	-198.3833618164063	1424.522216796875	615.2407836914064	273.553466796875	958.8148193359375	692.1737060546876	520.1290283203125	1130.369995117188	631.6329956054689	568.2051391601563	1123.049682617188	363.5175476074219	255.7115478515625	1083.400268554688	585.5023803710939	475.1526489257813	1398.681396484375	616.2424926757814	522.2169799804688	938.541015625	814.9819946289064	586.7484130859375	759.7244262695313	627.1616821289063	262.8959045410156	892.4765625	769.7405395507813	520.1142578125	1131.721923828125	630.3394165039064	508.9520263671875	886.239990234375	859.280029296875	588.3179321289063	954.4005126953124	963.5203857421876	630.296142578125	816.07177734375	812.773193359375	537.0146484375	996.8809814453125	765.5681152343751	40.52399826049805	1134.920043945313	503.3739929199219	69.24638366699219	1195.849365234375	244.5972900390626	-222.6040496826172	1178.605712890625	484.4544982910157	78.48986053466797	1391.5947265625	568.0223999023439	-7.921109676361084	891.4910278320313	615.0479736328125	-8.943048477172852	778.0530395507813	367.3289794921876	-276.0273742675781	936.0032958984375	595.7705078125001	40.57544326782227	1135.18017578125	503.2553100585938	-21.00900077819824	819.3599853515625	643.2620239257813	-139.7295684814453	878.5475463867188	739.5040283203125	88.62667083740234	845.9671020507813	762.1415405273438	6.29857063293457	969.8563842773438	584.3943481445314	259.4670104980469	1685.469970703125	592.5809936523439	255.676513671875	1699.169067382813	644.1837768554689	312.6333923339844	1691.170654296875	594.9729614257814	254.5831909179688	1736.896850585938	578.5698242187501	326.6612243652344	1707.242309570313	642.4434814453126	184.8284759521484	1693.873168945313	636.2743530273439	353.7028503417969	1680.771118164063	549.2712402343751	172.6750335693359	1659.993530273438	542.3351440429689	278.6629028320313	1516.115356445313	535.8154296875001	289.3500671386719	1160.775268554688	492.3892517089844	271.2724609375	1429.838500976563	661.9190063476564	262.654052734375	1265.863037109375	743.6583862304689	169.0710906982422	1365.043212890625	466.1456909179688	475.0519104003906	1452.905883789063	610.3205566406251	551.7719116210938	1136.705932617188	649.7307739257814	532.388427734375	1044.919921875	766.0517578125001	504.65380859375	948.054443359375	830.0834960937501	544.842529296875	934.3070678710938	805.1254882812501	516.7435302734375	892.9320678710938	869.5147705078125	76.63779449462891	1441.078002929688	564.5911254882814	5.159211158752441	1137.493286132813	513.9436645507814	-17.79276847839355	1009.718688964844	586.7926635742189	8.844972610473633	898.060302734375	639.3582763671875	-31.0983829498291	888.6898193359375	595.8074340820313	-31.51259803771973	824.5972290039063	651.7771606445313	389.9925842285156	971.3189086914063	663.0933227539064	152.2759246826172	983.308837890625	660.8070068359376	308.6656799316406	995.417236328125	484.8566894531251	229.487548828125	994.7271118164063	485.1091613769532	417.658203125	667.0166625976563	560.1542358398438	372.8239440917969	744.4200439453125	675.1349487304688	356.6225280761719	641.3092651367188	650.175048828125	381.0500183105469	487.7387084960937	531.5693359375	373.3485107421875	305.6225585937499	504.8314514160156	328.1549377441406	354.0698242187499	568.873291015625	321.7432556152344	252.1831665039062	550.6610717773438	331.3615417480469	92.93235778808591	474.7153625488281	286.3959350585938	80.76451110839841	400.6457214355469	300.7786865234375	79.85548400878903	573.8220825195313	276.6844177246094	56.5616416931152	624.283447265625	364.6426696777344	43.23391723632809	586.5947875976563	85.56672668457031	741.0333862304688	690.3095092773438	162.0112609863281	824.93310546875	739.435546875	168.1541748046875	738.9860229492188	775.3326416015625	131.6502380371094	532.360595703125	767.0819702148438	131.7773895263672	313.9306335449218	775.134033203125	172.2329559326172	397.2247924804687	820.4588623046875	179.6847839355469	260.3854675292968	814.46875	157.9532012939453	120.468994140625	763.2300415039063	208.6960601806641	81.57365417480464	699.328857421875	182.8306884765625	111.0532913208007	871.4105834960938	214.0502624511719	90.91559600830072	916.1976928710938	127.2332916259766	70.94880676269526	878.3051147460938	99.39690399169922	1010.034301757813	560.5168457031251	441.5481567382813	997.2320556640625	575.5424194335939	488.5629272460938	1119.733032226563	632.4935913085939	68.89173889160156	1118.66015625	504.8161010742188	352.1600036621094	903.5640258789063	600.7630004882813	180.5180053710938	905.9459838867188	601.9819946289063	330.4859924316406	489.8720092773437	533.5020141601563	180.6230010986328	520.35400390625	762.9710083007813	294.3739929199219	100.552001953125	484.0060119628906	197.2299957275391	120.4089965820312	769.4810180664063	296.0260009765625	77.88510131835935	546.6229858398438	185.5670013427734	106.6220016479492	838.3350219726563	472.7860107421875	1412.800048828125	615.4329833984376	79.9010009765625	1401.140014648438	570.4249877929689	520.1290283203125	1130.369995117188	631.6329956054689	40.52399826049805	1134.920043945313	503.3739929199219	508.9520263671875	886.239990234375	859.280029296875	-21.00900077819824	819.3599853515625	643.2620239257813	269.9159851074219	1011.389953613281	607.8870239257814	
